<svg width="156" height="93" viewBox="0 0 156 93" fill="none" xmlns="http://www.w3.org/2000/svg">
<g clip-path="url(#clip0_29201_3)">
<path d="M84.467 92.1557C123.755 92.1557 155.605 88.657 155.605 84.3413C155.605 80.0255 123.755 76.5269 84.467 76.5269C45.1788 76.5269 13.3293 80.0255 13.3293 84.3413C13.3293 88.657 45.1788 92.1557 84.467 92.1557Z" fill="#E6E7E8"/>
<path d="M39.1975 19.4012V34.7605L57.2514 42.0359V19.4012H39.1975Z" fill="#8FC549"/>
<path d="M63.449 11.0479V46.0779L81.5029 53.3533V11.0479H63.449Z" fill="#E75766"/>
<path d="M88.2395 0V56.0479L106.293 63.3233V0H88.2395Z" fill="#8FC549"/>
<path d="M0.395264 68.1736V87.3054L37.3114 57.3952L107.102 87.3054L143.21 60.3593L146.443 68.1736L155.335 40.9581L127.85 45.5389L135.126 48.7724L107.102 69.2515L37.3114 38.8024L0.395264 68.1736Z" fill="#126BA5"/>
</g>
<defs>
<clipPath id="clip0_29201_3">
<rect width="156" height="93" fill="white"/>
</clipPath>
</defs>
</svg>
